<svg xmlns:mydata="http://www.w3.org/2000/svg" mydata:contrastcolor="AD1AAC" mydata:template="Contrast" mydata:presentation="2.5" mydata:layouttype="undefined" mydata:specialfontid="undefined" mydata:id1="825" mydata:id2="224" mydata:companyname="Quick Link" mydata:companytagline="" version="1.1" xmlns="http://www.w3.org/2000/svg" xmlns:xlink="http://www.w3.org/1999/xlink" viewBox="0 35 550 400"><g fill="#101820" fill-rule="nonzero" stroke="none" stroke-width="1" stroke-linecap="butt" stroke-linejoin="miter" stroke-miterlimit="10" stroke-dasharray="" stroke-dashoffset="0" font-family="none" font-weight="none" font-size="none" text-anchor="none" style="mix-blend-mode: normal"><g data-paper-data="{&quot;isGlobalGroup&quot;:true,&quot;bounds&quot;:{&quot;x&quot;:116.05141511326798,&quot;y&quot;:115.00000000000001,&quot;width&quot;:317.897169773464,&quot;height&quot;:240}}"><g data-paper-data="{&quot;stacked&quot;:true,&quot;isPrimaryText&quot;:true}"><path d="M293.60961,168.65805c0,-0.01237 -0.0106,-0.01944 -0.01237,-0.03181v-6.45473c0,-0.12192 -0.09895,-0.22087 -0.22087,-0.22087h-5.38925c-1.9737,0 -3.71946,0.94886 -4.90157,2.40837c-1.9843,-1.50192 -4.44392,-2.40307 -7.11734,-2.40307h-5.78681c-6.52011,0 -11.82454,5.30443 -11.82454,11.82454v34.81454c0,6.52011 5.30443,11.8263 11.82454,11.8263h5.78681c2.02318,0 3.92973,-0.51419 5.59598,-1.41181v17.90997c0,0.00177 -0.00177,0.00353 -0.00177,0.00707c0,3.69649 2.88899,6.70564 6.44059,6.70564h5.39101c0.12192,0 0.22087,-0.09895 0.22087,-0.22087v-6.48477c0,-0.00177 -0.00177,-0.00353 -0.00177,-0.0053v-68.26321zM281.56243,168.69868v49.79841c-1.65388,0.94003 -3.5622,1.48248 -5.59598,1.48248c-3.06922,0 -5.56594,-2.49849 -5.56594,-5.56594v-46.45001c0,-3.06922 2.49672,-5.56594 5.56594,-5.56594c2.56917,0 4.93514,0.86581 6.84346,2.30766c-0.78453,1.11142 -1.26338,2.46845 -1.26338,3.95094c-0.00177,0.0159 0.01237,0.0265 0.0159,0.04241z" data-paper-data="{&quot;glyphName&quot;:&quot;q&quot;,&quot;glyphIndex&quot;:0,&quot;firstGlyphOfWord&quot;:true,&quot;word&quot;:1,&quot;line&quot;:1,&quot;firstGlyphOfFirstLine&quot;:true}"></path><path d="M328.02175,161.93827h-5.38925c-0.12192,0 -0.22087,0.09895 -0.22087,0.22087v51.50176c-0.00353,0.0159 -0.01767,0.0265 -0.01767,0.04064c0,1.48779 0.48238,2.85012 1.27398,3.9633c-1.91009,1.44715 -4.27783,2.31649 -6.85229,2.31649c-3.06922,0 -5.56594,-2.49672 -5.56594,-5.56594v-45.76619c0,-0.00177 0.00177,-0.00353 0.00177,-0.0053c0,-3.69826 -2.88899,-6.70564 -6.44059,-6.70564h-5.38925c-0.12192,0 -0.22087,0.09895 -0.22087,0.22087v6.48477c0,0.00177 0.00177,0.00177 0.00177,0.0053v39.94934c0,6.52011 5.30443,11.82454 11.82631,11.82454h5.78681c2.67872,0 5.14187,-0.90469 7.12618,-2.41191c1.1821,1.45245 2.9261,2.39601 4.89273,2.39601h5.38925c0.12192,0 0.22087,-0.09895 0.22087,-0.22087v-6.45296c0.00177,-0.01237 0.01237,-0.01944 0.01237,-0.03181v-45.04704c0,-0.00353 0.0053,-0.00707 0.0053,-0.0106c0,-3.69826 -2.88899,-6.70564 -6.44059,-6.70564z" data-paper-data="{&quot;glyphName&quot;:&quot;u&quot;,&quot;glyphIndex&quot;:1,&quot;word&quot;:1,&quot;line&quot;:1}"></path><path d="M345.78704,161.95241h-2.23168c4.98284,-1.38707 8.6546,-5.95291 8.6546,-11.37043c0,-0.00177 -0.00177,-0.00177 -0.00177,-0.00353c0,-0.0053 0.00177,-0.00883 0.00177,-0.01414c0,-3.3166 -2.69992,-6.01652 -6.01652,-6.01652c-3.3166,0 -6.01652,2.69992 -6.01652,6.01652c0,3.31836 2.69992,6.01652 6.01652,6.01652c2.19281,0 4.09583,-1.19093 5.14717,-2.9473c-1.33759,4.79025 -5.73204,8.31888 -10.94282,8.31888c-0.12192,0 -0.22087,0.09895 -0.22087,0.22087v6.45473c-0.00177,0.0106 -0.01237,0.01944 -0.01237,0.03004v45.0488c0,0.00353 -0.00353,0.00707 -0.00353,0.0106c0,3.69826 2.88899,6.70564 6.44059,6.70564h5.38925c0.12192,0 0.22087,-0.09895 0.22087,-0.22087v-51.50176c0.00353,-0.0159 0.01767,-0.0265 0.01767,-0.04241c-0.00177,-3.69649 -2.89076,-6.70564 -6.44236,-6.70564z" data-paper-data="{&quot;glyphName&quot;:&quot;i&quot;,&quot;glyphIndex&quot;:2,&quot;word&quot;:1,&quot;line&quot;:1}"></path><path d="M381.05574,185.38415c0,0.12192 0.09895,0.22087 0.22087,0.22087c6.52011,0 11.8263,-5.30443 11.8263,-11.82631c0,-6.52187 -5.30443,-11.82631 -11.82631,-11.82631h-11.57363c-0.0053,0 -0.00883,0.0053 -0.01414,0.00707c-0.0053,0 -0.00883,-0.00707 -0.01414,-0.00707c-6.52011,0 -11.8263,5.30443 -11.8263,11.82631v34.81454c0,6.52011 5.30443,11.82454 11.82631,11.82454c0.0053,0 0.00883,-0.0053 0.01414,-0.0053c0.0053,0 0.00883,0.0053 0.01414,0.0053h11.57363c6.52011,0 11.8263,-5.30443 11.8263,-11.82454v-11.60367c0,-0.12192 -0.09895,-0.22087 -0.22087,-0.22087c-6.52011,0 -11.8263,5.30443 -11.8263,11.82454c0,0 0,0 0,0.00177v5.81685c0,3.06922 -2.49672,5.56594 -5.56594,5.56594c-3.06922,0 -5.56594,-2.49672 -5.56594,-5.56594c0,-0.02827 -0.01944,-0.04771 -0.03004,-0.07245v-46.30512c0.00883,-0.02474 0.03004,-0.04417 0.03004,-0.07421c0,-3.06922 2.49849,-5.56594 5.56594,-5.56594c3.06922,0 5.56594,2.49849 5.56594,5.56594z" data-paper-data="{&quot;glyphName&quot;:&quot;c&quot;,&quot;glyphIndex&quot;:3,&quot;word&quot;:1,&quot;line&quot;:1}"></path><path d="M405.14526,220.42309h5.38925c0.12192,0 0.22087,-0.09895 0.22087,-0.22087v-6.48477c0,-0.0159 -0.01414,-0.0265 -0.01767,-0.04241v-28.08239h5.56948c0.0106,0.00177 0.01767,0.01237 0.02827,0.01237h0.11839c3.01444,0.06538 5.44756,2.525 5.44756,5.55534v17.44526c0,6.52011 5.30443,11.8263 11.82631,11.8263c0.12192,0 0.22087,-0.09895 0.22087,-0.22087v-23.23384c0,-5.73734 -4.1082,-10.52935 -9.53632,-11.59837c5.42812,-1.06901 9.53632,-5.86103 9.53632,-11.59837v-11.6072c0,-0.12192 -0.09895,-0.22087 -0.22087,-0.22087c-6.52011,0 -11.8263,5.30443 -11.8263,11.82631v5.81685c0,3.02858 -2.43488,5.4882 -5.44756,5.55534h-5.71614v-39.65956c0.00353,-0.0159 0.01767,-0.0265 0.01767,-0.04241c0,-3.69649 -2.88899,-6.70564 -6.44059,-6.70564h-5.38925c-0.12192,0 -0.22087,0.09895 -0.22087,0.22087v6.45296c-0.00177,0.0106 -0.01237,0.01944 -0.01237,0.0318v68.26851c0,0.0159 0.01414,0.0265 0.01767,0.04064c0.01944,3.67882 2.89782,6.665 6.43529,6.665z" data-paper-data="{&quot;glyphName&quot;:&quot;k&quot;,&quot;glyphIndex&quot;:4,&quot;lastGlyphOfWord&quot;:true,&quot;word&quot;:1,&quot;line&quot;:1,&quot;lastGlyphOfFirstLine&quot;:true}"></path><path d="M303.74245,243.63218c-1.55369,0 -2.81321,-1.25952 -2.81321,-2.81321v0c0,-1.55369 1.25952,-2.81321 2.81321,-2.81321h127.39293c1.55369,0 2.81321,1.25952 2.81321,2.81321v0c0,1.55369 -1.25952,2.81321 -2.81321,2.81321z" data-paper-data="{&quot;isStackedPrimarySeparatorLines&quot;:true,&quot;isRounded&quot;:true,&quot;isStackedPrimarySeparatorLine1&quot;:true}"></path><path d="M264.80983,331.24785h5.38925c0.12192,0 0.22087,-0.09895 0.22087,-0.22087v-6.48477c0,-0.0159 -0.01414,-0.0265 -0.01767,-0.04064v-68.18546c0.00353,-0.0159 0.01767,-0.0265 0.01767,-0.04241c0,-3.69649 -2.88899,-6.70564 -6.44059,-6.70564h-5.38925c-0.12192,0 -0.22087,0.09895 -0.22087,0.22087v6.45473c-0.00177,0.0106 -0.01237,0.01944 -0.01237,0.03004v68.26851c0,0.0159 0.01237,0.02474 0.0159,0.03887c0.0212,3.67882 2.89959,6.66676 6.43706,6.66676z" data-paper-data="{&quot;glyphName&quot;:&quot;l&quot;,&quot;glyphIndex&quot;:5,&quot;firstGlyphOfWord&quot;:true,&quot;word&quot;:2,&quot;line&quot;:2,&quot;firstGlyphOfSecondLine&quot;:true}"></path><path d="M281.67027,272.77717h-2.23168c4.98284,-1.38707 8.6546,-5.95291 8.6546,-11.37043c0,-0.00177 -0.00177,-0.00177 -0.00177,-0.00353c0,-0.0053 0.00177,-0.00883 0.00177,-0.01414c0,-3.3166 -2.69992,-6.01652 -6.01652,-6.01652c-3.3166,0 -6.01652,2.69992 -6.01652,6.01652c0,3.31836 2.69992,6.01652 6.01652,6.01652c2.19281,0 4.09583,-1.19093 5.14717,-2.9473c-1.33759,4.79025 -5.73204,8.31888 -10.94282,8.31888c-0.12192,0 -0.22087,0.09895 -0.22087,0.22087v6.45473c-0.00177,0.0106 -0.01237,0.01944 -0.01237,0.03004v45.0488c0,0.00353 -0.00353,0.00707 -0.00353,0.0106c0,3.69826 2.88899,6.70564 6.44059,6.70564h5.38925c0.12192,0 0.22087,-0.09895 0.22087,-0.22087v-51.50176c0.00353,-0.0159 0.01767,-0.0265 0.01767,-0.04241c-0.00177,-3.69649 -2.89076,-6.70564 -6.44236,-6.70564z" data-paper-data="{&quot;glyphName&quot;:&quot;i&quot;,&quot;glyphIndex&quot;:6,&quot;word&quot;:2,&quot;line&quot;:2}"></path><path d="M300.18636,331.24785h5.38925c0.12192,0 0.22087,-0.09895 0.22087,-0.22087v-6.48477c0,-0.0159 -0.01414,-0.0265 -0.01767,-0.04064v-44.97636c0.00353,-0.0159 0.01767,-0.0265 0.01767,-0.04241c0,-1.48779 -0.48238,-2.85012 -1.27398,-3.9633c1.91009,-1.44538 4.27783,-2.31473 6.85229,-2.31473c3.06922,0 5.56594,2.49672 5.56594,5.56594v45.76443c0,0.00177 -0.00177,0.00353 -0.00177,0.0053c0,3.69826 2.88899,6.70564 6.44059,6.70564h5.38925c0.12192,0 0.22087,-0.09895 0.22087,-0.22087v-6.48477c0,-0.00177 -0.00177,-0.00353 -0.00177,-0.0053v-39.94581c0,-6.52011 -5.30443,-11.8263 -11.82631,-11.8263h-5.78681c-2.67872,0 -5.14187,0.90469 -7.12618,2.41191c-1.1821,-1.45245 -2.9261,-2.39601 -4.89273,-2.39601h-5.39101c-0.12192,0 -0.22087,0.09895 -0.22087,0.22087v6.45473c-0.00177,0.0106 -0.01237,0.01944 -0.01237,0.03004v45.05764c0,0.0159 0.01414,0.02474 0.0159,0.03887c0.0212,3.67882 2.89959,6.66676 6.43882,6.66676z" data-paper-data="{&quot;glyphName&quot;:&quot;n&quot;,&quot;glyphIndex&quot;:7,&quot;word&quot;:2,&quot;line&quot;:2}"></path><path d="M341.02849,331.24785h5.38925c0.12192,0 0.22087,-0.09895 0.22087,-0.22087v-6.48477c0,-0.0159 -0.01414,-0.0265 -0.01767,-0.04241v-28.08239h5.56948c0.0106,0.00177 0.01767,0.01237 0.02827,0.01237h0.11839c3.01444,0.06538 5.44756,2.525 5.44756,5.55534v17.44526c0,6.52011 5.30443,11.8263 11.82631,11.8263c0.12192,0 0.22087,-0.09895 0.22087,-0.22087v-23.23384c0,-5.73734 -4.1082,-10.52935 -9.53632,-11.59837c5.42812,-1.06901 9.53632,-5.86103 9.53632,-11.59837v-11.6072c0,-0.12192 -0.09895,-0.22087 -0.22087,-0.22087c-6.52011,0 -11.8263,5.30443 -11.8263,11.82631v5.81685c0,3.02858 -2.43488,5.4882 -5.44756,5.55534h-5.71614v-39.65956c0.00353,-0.0159 0.01767,-0.0265 0.01767,-0.04241c0,-3.69649 -2.88899,-6.70564 -6.44059,-6.70564h-5.38925c-0.12192,0 -0.22087,0.09895 -0.22087,0.22087v6.45296c-0.00177,0.0106 -0.01237,0.01944 -0.01237,0.0318v68.26851c0,0.0159 0.01414,0.0265 0.01767,0.04064c0.01944,3.67882 2.89782,6.665 6.43529,6.665z" data-paper-data="{&quot;glyphName&quot;:&quot;k&quot;,&quot;glyphIndex&quot;:8,&quot;lastGlyphOfWord&quot;:true,&quot;word&quot;:2,&quot;line&quot;:2,&quot;lastGlyphOfSecondLine&quot;:true}"></path></g><g data-paper-data="{&quot;isIcon&quot;:&quot;true&quot;,&quot;iconType&quot;:&quot;icon&quot;,&quot;rawIconId&quot;:&quot;57199075-d326-47da-aced-3b888c166687&quot;,&quot;selectedEffects&quot;:{&quot;container&quot;:&quot;&quot;,&quot;transformation&quot;:&quot;&quot;,&quot;pattern&quot;:&quot;&quot;},&quot;isDetailed&quot;:true,&quot;iconStyle&quot;:&quot;standalone&quot;,&quot;bounds&quot;:{&quot;x&quot;:116.05141511326798,&quot;y&quot;:115.00000000000001,&quot;width&quot;:113.04016234799195,&quot;height&quot;:240},&quot;fillRule&quot;:&quot;nonzero&quot;,&quot;suitableAsStandaloneIcon&quot;:true}"><path d="M188.09731,168.23136c0,-5.40472 -1.88656,-9.99362 -5.65966,-13.76674c-3.87508,-3.7731 -8.46398,-5.65966 -13.76674,-5.65966c-5.40472,0 -9.99362,1.88656 -13.76674,5.65966c-3.7731,3.7731 -5.65966,8.36202 -5.65966,13.76674v37.0172c-13.35883,5.9146 -24.4232,14.88846 -33.19311,26.9216v-63.32696c0,-14.99044 5.25175,-27.68642 15.75526,-38.08795c10.40153,-10.5035 23.04653,-15.75526 37.93499,-15.75526c14.88846,0 27.53346,5.30274 37.93499,15.90822c10.40153,10.60548 15.60229,23.25048 15.60229,37.93499v122.52389c0,3.3652 -0.30593,6.67942 -0.91778,9.94264h-37.17017c1.93754,-3.05927 2.9063,-6.47546 2.9063,-10.24856zM219.91375,310.33461c-1.01976,2.75335 -2.29446,5.40472 -3.82409,7.95412c3.05927,3.46717 7.39325,5.20076 13.00192,5.20076v31.51051c-17.02996,0 -28.65519,-5.35373 -34.87572,-16.06118c-7.44424,4.181 -15.60229,6.27151 -24.47419,6.27151c-14.99044,0 -27.68642,-5.25175 -38.08795,-15.75526c-10.40153,-10.5035 -15.60229,-23.19949 -15.60229,-38.08795v-37.62906c6.01657,-17.02996 17.08094,-29.77693 33.19311,-38.24091v75.56404c0,5.30274 1.88656,9.84066 5.65966,13.61377c3.7731,3.7731 8.36202,5.65966 13.76674,5.65966h0.91778z" data-paper-data="{&quot;isPathIcon&quot;:true}"></path></g></g></g><g class="watermark-group" style="opacity:0.040000010281801224"><path class="watermark-path" d="M129.52,370.3a11.88,11.88,0,0,1,2.58,5.58,12,12,0,0,1,.11,3,11.81,11.81,0,0,1-.64,2.93,12.34,12.34,0,0,1-1.41,2.72,11.65,11.65,0,0,1-2.13,2.32,12,12,0,0,1-2.64,1.69,13,13,0,0,1-2.91.9,12.47,12.47,0,0,1-3,.12,12.17,12.17,0,0,1-2.93-.64,11.8,11.8,0,0,1-2.72-1.38,12.19,12.19,0,0,1-4-4.79,11.85,11.85,0,0,1-.89-2.92,12.14,12.14,0,0,1-.13-3,11.54,11.54,0,0,1,.64-2.92,11.67,11.67,0,0,1,3.5-5,11.44,11.44,0,0,1,2.67-1.69,11.64,11.64,0,0,1,2.92-.91,10.71,10.71,0,0,1,3-.12,11.68,11.68,0,0,1,5.66,2,11.7,11.7,0,0,1,2.34,2.12m-1.4,8.76a13,13,0,0,1-1.22,2.32,9.68,9.68,0,0,1-1.81,2,7.44,7.44,0,0,1-2.38,1.37,6.17,6.17,0,0,1-5.11-.46,8.73,8.73,0,0,1-3.85-4.58,6.69,6.69,0,0,1-.34-2.66,6.09,6.09,0,0,1,.77-2.47,7.15,7.15,0,0,1,1.75-2.11,9.58,9.58,0,0,1,1.09-.81,8.23,8.23,0,0,1,1.12-.63,8.14,8.14,0,0,1,1.19-.46,12.71,12.71,0,0,1,1.32-.37l2,2.38a12.83,12.83,0,0,0-1.56.17,7.86,7.86,0,0,0-1.23.32,4.5,4.5,0,0,0-1,.49,6.41,6.41,0,0,0-.93.67,4.49,4.49,0,0,0-1.15,1.39,3.87,3.87,0,0,0-.45,1.58,4.12,4.12,0,0,0,.26,1.63,6.11,6.11,0,0,0,2.36,2.82,4.43,4.43,0,0,0,1.57.53,3.91,3.91,0,0,0,1.62-.17,4.71,4.71,0,0,0,1.57-.89,10.5,10.5,0,0,0,.83-.79,5.71,5.71,0,0,0,.65-.93,10.13,10.13,0,0,0,.54-1.14,12.24,12.24,0,0,0,.44-1.49l2,2.33m-14.46,4.55a8.86,8.86,0,0,0,2.78,2.22,9,9,0,0,0,3.29.94,9.15,9.15,0,0,0,3.39-.37,8.68,8.68,0,0,0,3.11-1.69,8.8,8.8,0,0,0,2.22-2.78,9.15,9.15,0,0,0,1-3.29,8.95,8.95,0,0,0-4.83-8.76,9,9,0,0,0-6.73-.57,9,9,0,0,0-5.33,4.47,8.94,8.94,0,0,0-.57,6.71,8.76,8.76,0,0,0,1.7,3.12"></path><path class="watermark-path" d="M147,349c-.48.12-1.09.31-1.82.57a24.37,24.37,0,0,0-2.4,1A28.35,28.35,0,0,0,140,352a20.72,20.72,0,0,0-2.71,1.94c-.7.59-1.28,1.11-1.74,1.57a15.07,15.07,0,0,0-1.1,1.22,4.09,4.09,0,0,0-.59.92,2.32,2.32,0,0,0-.22.64,1.16,1.16,0,0,0,0,.47,1.83,1.83,0,0,0,.18.29,1.15,1.15,0,0,0,1,.37,5.54,5.54,0,0,0,1.51-.38q.87-.35,1.95-.9l2.26-1.18q1.2-.65,2.49-1.29c.87-.44,1.73-.83,2.59-1.17a18.94,18.94,0,0,1,2.6-.81,9.27,9.27,0,0,1,2.46-.29,6.25,6.25,0,0,1,2.24.49,5.12,5.12,0,0,1,1.89,1.47,6.35,6.35,0,0,1,1.41,2.61,6,6,0,0,1,.09,2.6,8.3,8.3,0,0,1-.9,2.52,17.79,17.79,0,0,1-1.62,2.37,23.92,23.92,0,0,1-2,2.15c-.72.67-1.41,1.29-2.09,1.87a33.79,33.79,0,0,1-5.33,3.7,32.29,32.29,0,0,1-4.91,2.28l-3.61-4.3a21.38,21.38,0,0,0,5.39-1.87,27.2,27.2,0,0,0,5.4-3.56,21.59,21.59,0,0,0,2.38-2.27,8.67,8.67,0,0,0,1.18-1.7,2.32,2.32,0,0,0,.27-1.19,1.34,1.34,0,0,0-.28-.74,1.21,1.21,0,0,0-1-.42,4.32,4.32,0,0,0-1.55.34,15.77,15.77,0,0,0-2,.88c-.72.37-1.48.77-2.27,1.21l-2.45,1.3c-.85.45-1.7.85-2.56,1.21a22.37,22.37,0,0,1-2.54.86,10,10,0,0,1-2.43.32,5.76,5.76,0,0,1-2.2-.45,5,5,0,0,1-1.89-1.45,6.12,6.12,0,0,1-1.31-2.41,6,6,0,0,1-.1-2.41,8.28,8.28,0,0,1,.81-2.38,14.06,14.06,0,0,1,1.49-2.24,22.37,22.37,0,0,1,1.85-2.05q1-1,2-1.77c.7-.59,1.44-1.15,2.23-1.7s1.62-1.06,2.44-1.53,1.63-.91,2.43-1.3,1.58-.75,2.3-1L147,349"></path><path class="watermark-path" d="M186.76,337.57l-10.6-12.63,3.92,18.24-4.66,3.91-17.27-7,10.6,12.63-4.86,4.07-15.09-18,6.59-5.54,18.69,7.52-4.15-19.71,6.57-5.52,15.09,18-4.83,4.05"></path><path class="watermark-path" d="M208.84,313.24l-10,8.42,1.16,4.82L194.56,331l-5.68-25.89,5.42-4.55,24.51,10.09-5.42,4.55-4.55-2m-11.23,3.45,6.57-5.52-8.83-3.87,2.26,9.39"></path><path class="watermark-path" d="M227.49,281.38c-.48.12-1.09.31-1.82.57a24.37,24.37,0,0,0-2.4,1,26.11,26.11,0,0,0-2.7,1.47,20.72,20.72,0,0,0-2.71,1.94c-.7.59-1.28,1.11-1.74,1.57a13.39,13.39,0,0,0-1.1,1.22,4.29,4.29,0,0,0-.59.91,2.48,2.48,0,0,0-.22.65,1.16,1.16,0,0,0,0,.47,1.83,1.83,0,0,0,.18.29,1.15,1.15,0,0,0,1,.37,5.54,5.54,0,0,0,1.51-.38q.87-.34,2-.9l2.26-1.18q1.2-.64,2.49-1.29c.87-.44,1.73-.83,2.59-1.17a18.94,18.94,0,0,1,2.6-.81,9.27,9.27,0,0,1,2.46-.29,6.08,6.08,0,0,1,2.24.49,5.09,5.09,0,0,1,1.89,1.46,6.47,6.47,0,0,1,1.41,2.61,6.07,6.07,0,0,1,.09,2.61,8.3,8.3,0,0,1-.9,2.52,16.32,16.32,0,0,1-1.63,2.36,21.41,21.41,0,0,1-2,2.16c-.72.67-1.41,1.29-2.1,1.86a33.36,33.36,0,0,1-5.32,3.71,31.92,31.92,0,0,1-4.92,2.28l-3.6-4.3a21.38,21.38,0,0,0,5.39-1.87,27.2,27.2,0,0,0,5.4-3.56,21.59,21.59,0,0,0,2.38-2.27,8.67,8.67,0,0,0,1.18-1.7A2.32,2.32,0,0,0,231,293a1.34,1.34,0,0,0-.28-.74,1.21,1.21,0,0,0-1-.42,4.32,4.32,0,0,0-1.55.34,16.54,16.54,0,0,0-2,.88c-.71.37-1.47.77-2.26,1.21l-2.46,1.3c-.84.44-1.7.85-2.55,1.21a24.53,24.53,0,0,1-2.54.86A10,10,0,0,1,214,298a5.76,5.76,0,0,1-2.2-.45,5,5,0,0,1-1.89-1.45,6.12,6.12,0,0,1-1.31-2.41,5.78,5.78,0,0,1-.1-2.41,8,8,0,0,1,.81-2.38,14.61,14.61,0,0,1,1.49-2.25,22.26,22.26,0,0,1,1.85-2q1-1,2-1.77c.7-.59,1.44-1.15,2.23-1.7s1.62-1.06,2.44-1.53,1.63-.91,2.43-1.31,1.58-.74,2.3-1l3.5,4.16"></path><path class="watermark-path" d="M261.64,274.74l-6.29-7.5L243,277.61l6.3,7.5-4.86,4.07-15.09-18,4.85-4.08,5.49,6.55L252,263.3l-5.49-6.55,4.86-4.07,15.09,18-4.86,4.08"></path><path class="watermark-path" d="M272.18,265.9l-15.09-18,4.86-4.08,15.09,18-4.86,4.08"></path><path class="watermark-path" d="M299.65,242.85l-22.51-2.18L287.51,253l-4.85,4.08-15.1-18,5.28-4.43,22.56,2.22L285,224.5l4.83-4.06,15.09,18-5.26,4.42"></path><path class="watermark-path" d="M306.68,205.52a31.88,31.88,0,0,1,5.29-3.66,34.48,34.48,0,0,1,5.14-2.35l3.69,4.39a20.77,20.77,0,0,0-2.37.61,20.47,20.47,0,0,0-2.61,1,25.12,25.12,0,0,0-2.76,1.49,23.9,23.9,0,0,0-2.8,2,20.42,20.42,0,0,0-2.8,2.77,12.77,12.77,0,0,0-1.64,2.52,7,7,0,0,0-.68,2.24,6,6,0,0,0,.66,3.64,8.16,8.16,0,0,0,.94,1.38,9.12,9.12,0,0,0,1.08,1.07,6.39,6.39,0,0,0,1.47.91,6.73,6.73,0,0,0,1.88.48,6.54,6.54,0,0,0,2.28-.18,11.67,11.67,0,0,0,2.74-1.07,19.38,19.38,0,0,0,3.18-2.22c.57-.48,1.06-.92,1.46-1.31a14.57,14.57,0,0,0,1-1.13,11.46,11.46,0,0,0,.81-1.05l.74-1.09-1.82-2.17-5.45,4.57-3.31-3.94,10.31-8.65,7.71,9.19a29,29,0,0,1-1.67,2.43q-1,1.26-2.1,2.52c-.74.84-1.5,1.65-2.3,2.44s-1.58,1.5-2.33,2.14a31,31,0,0,1-3.59,2.61,22.55,22.55,0,0,1-3.64,1.83,15.64,15.64,0,0,1-3.63.89,10.72,10.72,0,0,1-3.49-.15,10.45,10.45,0,0,1-3.28-1.33,12.54,12.54,0,0,1-3-2.67,12,12,0,0,1-2.08-3.44,10.45,10.45,0,0,1-.71-3.5,11.14,11.14,0,0,1,.51-3.51,15.72,15.72,0,0,1,1.56-3.43,21.62,21.62,0,0,1,2.42-3.28,30.3,30.3,0,0,1,3.15-3"></path><path class="watermark-path" d="M336.91,211.59l-15.1-18,4.86-4.08,11.79,14,13.13-11,3.31,3.94-18,15.1"></path><path class="watermark-path" d="M374.54,164.71a12.28,12.28,0,0,1,2.59,4.81,10.44,10.44,0,0,1,0,5,14.62,14.62,0,0,1-2.33,5,25.55,25.55,0,0,1-4.56,4.85,26.07,26.07,0,0,1-5.6,3.67,14.79,14.79,0,0,1-5.38,1.43,10.43,10.43,0,0,1-4.94-.89,13.24,13.24,0,0,1-6.87-8.18,10.48,10.48,0,0,1,0-5,14.51,14.51,0,0,1,2.36-5,25.23,25.23,0,0,1,4.57-4.89,25,25,0,0,1,5.59-3.64,14.45,14.45,0,0,1,5.35-1.43,10.31,10.31,0,0,1,4.93.92,12.22,12.22,0,0,1,4.28,3.38m-4.91,4.11a8.36,8.36,0,0,0-2-1.72,5.5,5.5,0,0,0-2.65-.85,7.72,7.72,0,0,0-3.32.57,14.49,14.49,0,0,0-4,2.52,16.72,16.72,0,0,0-2.38,2.4,10.15,10.15,0,0,0-1.39,2.24,6.71,6.71,0,0,0-.56,2.1,5.69,5.69,0,0,0,.1,1.9,6.21,6.21,0,0,0,.61,1.69,9.85,9.85,0,0,0,1,1.44,10.48,10.48,0,0,0,1.26,1.23,6.67,6.67,0,0,0,1.57.92,6.1,6.1,0,0,0,1.85.41,6.8,6.8,0,0,0,2.15-.2,11.06,11.06,0,0,0,2.45-1,17.67,17.67,0,0,0,2.77-1.94,14.39,14.39,0,0,0,3.18-3.52,7.74,7.74,0,0,0,1.14-3.17,5.54,5.54,0,0,0-.37-2.74,8.52,8.52,0,0,0-1.36-2.3"></path><path class="watermark-path" d="M382.66,141.76A32.3,32.3,0,0,1,388,138.1a34.12,34.12,0,0,1,5.15-2.35l3.69,4.4a19.62,19.62,0,0,0-2.37.6,22.08,22.08,0,0,0-2.61,1,26,26,0,0,0-2.77,1.49,23.9,23.9,0,0,0-2.8,2,21,21,0,0,0-2.8,2.78,13.19,13.19,0,0,0-1.64,2.51,7.29,7.29,0,0,0-.68,2.24,6.36,6.36,0,0,0,.06,2,5.8,5.8,0,0,0,.61,1.68,8.12,8.12,0,0,0,.93,1.38,9.16,9.16,0,0,0,1.08,1.08,6.56,6.56,0,0,0,1.48.9,6,6,0,0,0,1.87.48,6.76,6.76,0,0,0,2.28-.17,12,12,0,0,0,2.74-1.08,18.57,18.57,0,0,0,3.18-2.22c.58-.48,1.06-.92,1.46-1.31s.75-.77,1.05-1.12.57-.72.81-1.06l.73-1.09-1.82-2.17-5.45,4.57-3.3-3.94,10.3-8.65,7.71,9.19a29,29,0,0,1-1.67,2.43q-1,1.26-2.1,2.52c-.73.84-1.5,1.66-2.3,2.44s-1.57,1.5-2.33,2.14a31,31,0,0,1-3.59,2.61,22.15,22.15,0,0,1-3.64,1.83,15.56,15.56,0,0,1-3.62.89,11,11,0,0,1-3.49-.14,10.84,10.84,0,0,1-3.28-1.33,12.82,12.82,0,0,1-3-2.68,12.12,12.12,0,0,1-2.08-3.43A10.71,10.71,0,0,1,375,155a11.18,11.18,0,0,1,.51-3.51,15.51,15.51,0,0,1,1.57-3.43,21.44,21.44,0,0,1,2.42-3.28,30.19,30.19,0,0,1,3.14-3"></path><path class="watermark-path" d="M428.63,119.31a12.26,12.26,0,0,1,2.59,4.82,10.44,10.44,0,0,1,0,5,14.53,14.53,0,0,1-2.34,5,25.29,25.29,0,0,1-4.56,4.86,26,26,0,0,1-5.59,3.67,14.84,14.84,0,0,1-5.38,1.43,10.61,10.61,0,0,1-4.95-.89,12.15,12.15,0,0,1-4.3-3.37,12,12,0,0,1-2.56-4.81,10.48,10.48,0,0,1,0-5,14.39,14.39,0,0,1,2.35-5,27.89,27.89,0,0,1,10.16-8.53,14.49,14.49,0,0,1,5.36-1.43,10.27,10.27,0,0,1,4.92.92,12.21,12.21,0,0,1,4.28,3.37m-4.91,4.12a8.17,8.17,0,0,0-2-1.72,5.58,5.58,0,0,0-2.65-.86,7.86,7.86,0,0,0-3.31.58,14.49,14.49,0,0,0-4,2.52,16.21,16.21,0,0,0-2.38,2.4,9.85,9.85,0,0,0-1.4,2.24,7,7,0,0,0-.56,2.1,6,6,0,0,0,.1,1.9,6.23,6.23,0,0,0,.62,1.69,8.49,8.49,0,0,0,1,1.44,9.18,9.18,0,0,0,1.26,1.23,6.67,6.67,0,0,0,1.57.92,6,6,0,0,0,1.84.41,6.86,6.86,0,0,0,2.16-.2,11.26,11.26,0,0,0,2.45-1,17.62,17.62,0,0,0,2.76-1.94,14.67,14.67,0,0,0,3.19-3.52,7.71,7.71,0,0,0,1.13-3.17,5.53,5.53,0,0,0-.36-2.74,8.55,8.55,0,0,0-1.37-2.3"></path></g></svg>